<?xml version="1.0" encoding="UTF-8" standalone="no"?><!DOCTYPE svg PUBLIC "-//W3C//DTD SVG 1.1//EN" "http://www.w3.org/Graphics/SVG/1.1/DTD/svg11.dtd"><svg width="100%" height="100%" viewBox="0 0 2134 2134" version="1.1" xmlns="http://www.w3.org/2000/svg" xmlns:xlink="http://www.w3.org/1999/xlink" xml:space="preserve" xmlns:serif="http://www.serif.com/" style="fill-rule:evenodd;clip-rule:evenodd;stroke-linejoin:round;stroke-miterlimit:2;"><path d="M465.833,259.167c243.334,182.083 505,552.083 600.834,750.833c95.833,-198.333 357.5,-568.333 600.833,-750.833c175.417,-131.667 459.583,-233.334 459.583,90.833c0,64.583 -37.083,543.75 -58.75,621.667c-75.833,270 -351.666,339.166 -597.083,297.083c428.75,72.917 537.917,314.583 302.083,556.25c-447.5,459.167 -642.916,-115 -692.916,-262.083c-7.084,-20.417 -10.834,-32.5 -13.75,-32.5c-2.917,-0 -6.667,12.5 -13.75,32.5c-50,147.083 -245.834,721.25 -692.917,262.083c-235.417,-241.667 -126.667,-483.333 302.083,-556.25c-245.416,42.083 -521.25,-27.083 -596.666,-297.5c-22.084,-77.917 -59.167,-557.083 -59.167,-621.667c0,-324.166 284.167,-222.5 459.583,-90.833l0,0.417Z" style="fill:#bf9000;fill-rule:nonzero;"/></svg>